<?xml version="1.0" encoding="UTF-8"?>
<svg version="1.1" viewBox="0 0 2048 1805" width="532" height="469" xmlns="http://www.w3.org/2000/svg">
<path transform="translate(1350)" d="m0 0h2l6 21 18 73 19 78 19 76v3l64-16 31-8 74-19 44-11 50-13 43-11 118-30-1 5-17 36-13 28-12 26-16 34-32 69-18 38-9 20-18 38-11 24-2 5h30l68 1 99 2 21 1-6 8-9 11-10 13-22 28-20 25-13 17-13 16-11 14-13 16-10 13-12 15-11 14-16 20-33 42-12 15-10 13-1 2-1 19-1 54-1 117-1 28 8-7 52-52 3-4h2l1-3 8-7 3-3h2l2-4 3-1h153l2-5 14-25 8-13 1-1h70l6 9 14 25 11 19 4 4-1 5-7 11-14 25-12 20-1 1h-70l-9-14-12-22-3-4h-144l-2 4-76 76-3 1h-13l7 14 13 22 16 28 15 26 7 13 2 1h118l6-9 9-16 6-10 2-4 25-1h21l21 1 7 14 14 24 9 15-1 8-10 17-9 16-8 14-3 4h-65l-6-9-14-24-3-6-14-1h-93l-3 3-6 10-15 26-16 28-11 19-1 5 75 75 2 1h140l3-3 8-14 13-22 2-2h69l13 22 10 18 12 20-2 4-6 10-10 18-14 24-3 4h-70l-8-13-12-21-5-9-6-1h-147l-5-3-77-77h-2l-13 23-14 24-8 14-10 17-14 24-14 25-10 17-14 24-3 3-343-1-6-9-14-24-16-28-10-17-16-28-10-17-30-52-12-21-10-17-28-49-14-24-6-10-1-4 15-25 13-23 11-19 8-14 15-26 9-16 3-5v-3l-17-6-24-7-37-6-11-1h-42l-26 3-26 5-24 7-21 8v3l14 25 14 24 16 28 14 24 12 21 2 3-1 4-5 9-17 29-24 42-11 19-14 24-16 28-10 17-13 23-10 17-15 26-14 24-20 35-2 3h-345l-6-9-13-23-14-24-12-21-14-24-12-21-15-26-12-21v-2l-9 7-73 73-99 1h-57l-2 6-9 15-12 21-2 2h-70l-5-8-14-24-10-18-6-9 2-4 10-17 13-23 10-17h69l5 6 15 27 5 8h140l5-3 73-73-1-5-10-18-14-24-24-42-2-2h-108l-2 5-6 11-13 22-2 2h-65l-5-8-14-25-10-17-2-4 1-6 9-16 21-36 24-1h41l3 5 8 14 10 17 3 4h119l12-21 15-26 9-15 14-25 1-15-9-4-79-79-143-1-2 7-6 9-13 23-2 2h-70l-5-8-10-17-13-23-7-11 2-4 9-15 14-25 9-15 1-1h69l5 5 12 22 9 15v2h154l8 7 17 16 49 49-1-140-2-118-1-23-7-30-23-90-36-140-10-40-8-31-11-43-11-42-1-5 10 3 22 7 24 8 35 12 36 12 50 17 41 14 36 12 35 12 5 1 10-19 16-29 6-10 7-14 12-22 6-10 6-12 12-22 16-29 13-24 12-22 20-36 3-2 10 9 11 9 14 12 11 9 15 13 17 14 10 9 11 9 14 12 11 9 14 12 11 9 10 9 11 9 13 11 8 6 5-2 14-7 24-14 26-14 17-10 24-13 16-9 50-28 23-13 27-15 29-16 23-13 47-26 25-14 23-13 97-54zm35 649 3 5 12 14 9 11 8 9 9 11 12 14 9 11 12 14 9 11 12 14 9 11 13 15 9 11 9 10 3 5-16-8-31-15-23-11-26-12-35-17-23-11-27-13-26-12-16-8-76-36-30-14-10-5-2 1 12 13 11 12 15 16 11 12 28 30 24 26 16 17 14 15 9 10 29 31 1 1 11 1h196l1-1v-34l-1-57-5-5-24-13-45-25-26-14-18-10-24-13-25-14-5-3zm-902 73 1 48 2 67 1 1h292l33 1 6 12 10 17 16 28 11 18 10 18 9 15 7 12 3 1 14-6 19-7 24-7 28-6 27-3 25-1h17l34 2 22 3 30 7 29 9 11 5h5l30-52 8-13 12-21 11-19 7-12 60-1h41v-2l-20-8-34-13-36-14-30-11-12-5-29-11-26-10-37-14-34-13-24-10v3l8 6 17 12 14 10 36 26 17 12 28 20 18 13 28 20 1 2-29-8-30-7-33-8-37-9-41-10-51-12-48-12-47-11-173-42-28-6-5-1-60-2-64-1zm477 223v4l9 12v7l5-5 4-6-1-4-5-7-5-1zm46 0-1 2 12 17 4-2 3-5v-5l-7-6-3-1zm26 0v25l1 1h10l1-4v-21l-3-1zm19 0-1 2h4v23l1 1h9l1-24 2-1zm-69 3m8 2-5 3-2 4v7l5 6 7 1 2-2h-5v-12l1-4 3-3zm86 0-5 4v12l5 5h8l3-3h-6l-1-1v-15l7 3-2-4-2-1zm-80 1 4 4-2-4zm4 4m87 0m-88 12m-1 1m327 25-16 4-10 5-7 6-7 11-3 7-2 22-2 40-2 19-6 12-5 4-10 3-12 2-4 6v11l5 5 19 4 6 4 5 8 3 11 2 30 2 38 3 12 6 10 4 5 9 6 8 4 14 3h16l9-3 4-6v-10l-4-6h-24l-8-3-6-5-4-10-2-32-2-38-4-13-7-11-9-9-1-2 5-2 5-4 8-14 3-13 4-68 6-12 7-4 2-1 27-1 4-6v-9l-4-7-9-3zm185 0-8 3-4 4-1 3v8l3 5 2 2 25 1 8 3 6 7 2 7 3 56 2 15 5 15 8 11 6 5-1 3-6 5-7 10-4 11-2 8-2 34-2 33-2 8-7 7-5 2-27 1-4 4-1 2v9l3 5 3 3 8 2h15l15-3 13-7 9-9 5-10 2-11 5-68 2-11 5-8 7-4 8-2 10-2 6-5v-12l-7-6-15-2-8-4-5-6-3-14-5-68-2-11-5-10-9-9-12-6-11-3-7-1zm-982 4-12 3-12 6-9 8-6 10-2 7-6 76-3 12-6 7-6 3-17 3-5 5-2 7 4 8 4 3 15 2 7 3 5 6 3 8 2 16 4 55 2 14 5 10 8 9 10 6 14 4 5 1h17l8-4 4-5v-10l-3-5-3-1h-23l-10-5-5-6-2-6-3-55-2-18-5-14-6-9-7-6-2-2 10-9 6-9 4-13 2-18 3-56 4-8 8-6 8-2h21l4-3 1-3v-10l-6-7-5-2zm186 0-7 3-4 4-1 3v8l3 6 3 1h21l9 3 6 5 4 9 1 8 3 60 3 13 6 11 7 8 5 4 1 2-5 1-8 9-7 14-2 8-3 60-1 11-5 9-5 4-7 3h-21l-6 2-2 5v8l4 6 8 4h18l16-4 11-6 8-8 7-13 2-18 2-42 2-21 5-12 5-5 5-3 16-2 4-2 3-6v-7l-3-6-5-3-16-2-9-7-4-10-2-9-2-36-2-34-4-11-7-10-7-6-10-5-16-4zm673 6-3 2 1 8 1 1 10 1h58l12-1 1-9-2-2zm-796 4-1 3v7l1 1 7 1h71l3-2v-9l-1-1zm750 44v9l2 2h166l2-2v-9zm-788 3-7 1-1 7 1 4 4 1h161l4-1 1-9-1-2-46-1zm840 41-8 2-1 2v6l4 2h78l1-1-1-9-1-1-16-1zm-802 5-1 1v8l1 2 24 1h23l33-1 1-2v-8l-1-1zm757 34-6 1-1 2v8l2 2h167l1-2v-9l-6-2zm-802 6-1 1 1 8 1 1 8 1h143l16-1 2-3v-6l-1-1zm845 42-6 1-1 8 1 3 6 1h71l4-1v-11l-3-1zm-800 5-1 1v7l1 3 21 1 59-1 1-2v-9zm864 32-114 1v9l3 2h165l2-1v-10zm-908 4-2 4 1 7 1 1 10 1h135l23-1 1-7-1-4-3-1zm839 40-1 1v10l1 1h79l1-1v-10l-1-1zm-796 5v7l1 3 2 1h76l2-1 1-10zm-539 27-5 8-14 25 2 5 6 10 9 16 2 3h36l5-5 14-24 1-7-12-22-6-8-1-1zm1909 0-6 8-6 11-7 12v5l11 19 6 10 2 2h36l4-4 12-22 4-6-1-4-15-27-3-4z" fill="#0F1E43"/>
<path transform="translate(1323,62)" d="m0 0h4l5 18 13 53 6 22 5 23 5 19 5 21 12 48 5 22 3 10 4 1 4-2 5 1v-2l8-1 3-1 2 1v-2l4 1v-2l5-1 2 1v-2l8-1 4-2 9-1 3-2 7-2 9-1 3-2 23-6h5l3-2 9-1 3-2 8-1 4-2 16-4 18-5 16-4 70-18 32-8 54-14 26-6 11-1-1 7-8 18-5 12-6 12-12 26-9 20-9 19-12 26-7 15-14 29-8 18-7 14-26 56-7 15-3 7v4l10 1 47 1 123 2 11 1 1 5-12 17-14 17-10 13-11 14-8 10-11 14-12 15-11 14-9 11-10 13-5 7h-2l-2 4-11 15h-2l-2 4-10 13-10 12-7 9-10 13-6 8-1 3-1 25-1 56-1 82-1 10h-3l-5-6-33-55-1-4-1-24-2-94-1-8-9-6-18-10-6-3-22-12-16-9-24-13-23-13-19-10-23-13-30-16-23-13-24-13-22-12-18-10-26-14-25-14-13-7v-2l-5-1-24-13-6-3 7 9 8 10 11 12 7 9 9 10 8 10 11 13 12 14 9 11 9 10 8 10 12 14 9 11 9 10 11 14 4 5-1 2 1 2v3l-4 1-8-4-28-13-68-32-16-8-34-16-41-20-28-13-10-5-27-13-3-1-17-9-6-2-18-9-7-4-6-2-10-5-11-5v-2l-5-1-4-2 2 4 8 9v2l4 2 7 7 6 7 10 10 7 8 11 12 16 17 11 11 7 8 9 10 12 13 12 12 1 5h3l6 6v4h3l7 7 2 4 1 1 7 6 9 10 10 10 7 8 9 10 4 4v2h2l2 3v3l-6-1-40-15-26-10-37-14-42-16-54-21-42-16-31-12-18-7-7-3-3-1-8-3-4-2-9-3-11-4-2-1-5-2-4-2-10-3-3-1-8-4-7-2-3-1-3-2-10-3-3-2-7-2-3-1-5-3-13-3 10 8 9 6 9 7 11 7 16 12 16 11 18 13 19 14 16 11 13 9 11 8 18 13 17 12 18 13 14 10 18 13 1 2 5 2 6 5v3h-7l-20-5-39-9-32-8-23-5-15-4-32-8-22-5-52-13-33-8-1-1-8-1-11-3-1-1-8-1-4-1v-2l-5 1-1-1h-5l-1-1-54-1-159-2h-52v33l2 49 1 43v35l-8 14-14 24-16 26-1 2-4 7-5 2-1-2-1-21-1-114-2-102-3-18-6-21-5-22-3-9-5-22-5-19-8-31-8-30-12-48-5-19-12-47-10-39-6-24v-9l11 3 49 16 28 10 36 12 38 13 36 12 38 13 4 1 12 4 3-3 10-18 16-30 12-22 9-16 6-11 15-28 12-22 14-26 10-18 12-21 6-12 7-9 5 2 13 11 22 18 14 12 8 7 14 12 11 9 26 22 11 9 11 10 7 5v2l4 2 13 11 10 8v2l5 2 6 1 15-8 33-18 16-9 41-23 41-23 12-6 4-3 20-11 3-1 4-3 14-8 19-10 13-8 11-6 6-3 9-5 24-14 17-9 21-12 22-12 21-12 18-10 22-12 43-24z" fill="#8DDDD8"/>
<path transform="translate(501,895)" d="m0 0h275l5 4 15 26 11 20 9 15 9 16 14 24 11 19 14 24 24 42 14 24 10 17 3 6v6l-6 12-10 17-14 24-16 28-10 17-8 14-14 24-9 16-14 24-9 16-15 26-8 13-3 5-3 2h-274l-5-2-13-23-14-24-15-26-11-19-8-13-6-11-10-18-11-19-17-29-30-52-1-7 9-17 10-17 6-10 14-24 16-28 9-16 15-25 14-25 8-14 9-15 13-23 13-22zm27 102-12 3-12 6-9 8-6 10-2 7-6 76-3 12-6 7-6 3-17 3-5 5-2 7 4 8 4 3 15 2 7 3 5 6 3 8 2 16 4 55 2 14 5 10 8 9 10 6 14 4 5 1h17l8-4 4-5v-10l-3-5-3-1h-23l-10-5-5-6-2-6-3-55-2-18-5-14-6-9-7-6-2-2 10-9 6-9 4-13 2-18 3-56 4-8 8-6 8-2h21l4-3 1-3v-10l-6-7-5-2zm186 0-7 3-4 4-1 3v8l3 6 3 1h21l9 3 6 5 4 9 1 8 3 60 3 13 6 11 7 8 5 4 1 2-5 1-8 9-7 14-2 8-3 60-1 11-5 9-5 4-7 3h-21l-6 2-2 5v8l4 6 8 4h18l16-4 11-6 8-8 7-13 2-18 2-42 2-21 5-12 5-5 5-3 16-2 4-2 3-6v-7l-3-6-5-3-16-2-9-7-4-10-2-9-2-36-2-34-4-11-7-10-7-6-10-5-16-4zm-123 10-1 3v7l1 1 7 1h71l3-2v-9l-1-1zm-38 47-7 1-1 7 1 4 4 1h161l4-1 1-9-1-2-46-1zm38 46-1 1v8l1 2 24 1h23l33-1 1-2v-8l-1-1zm-45 40-1 1 1 8 1 1 8 1h143l16-1 2-3v-6l-1-1zm45 47-1 1v7l1 3 21 1 59-1 1-2v-9zm-44 36-2 4 1 7 1 1 10 1h135l23-1 1-7-1-4-3-1zm43 45v7l1 3 2 1h76l2-1 1-10z" fill="#04BADE"/>
<path transform="translate(1273,895)" d="m0 0h275l5 5 9 16 14 24 17 29 9 16 8 14 16 27 13 23 9 15 6 11 14 24 9 16 10 18-1 7-9 16-14 24-13 23-9 15-14 25-9 15-13 23-13 22-20 35-14 24-6 10-5 4-264 1-10-1-6-5-16-28-14-24-15-26-16-28-11-19-10-17-15-26-16-28-11-19-10-17v-6l4-9 8-13 13-23 9-15 13-23 11-19 8-13 6-11 11-19 16-28 15-26 16-28 6-8zm52 98-16 4-10 5-7 6-7 11-3 7-2 22-2 40-2 19-6 12-5 4-10 3-12 2-4 6v11l5 5 19 4 6 4 5 8 3 11 2 30 2 38 3 12 6 10 4 5 9 6 8 4 14 3h16l9-3 4-6v-10l-4-6h-24l-8-3-6-5-4-10-2-32-2-38-4-13-7-11-9-9-1-2 5-2 5-4 8-14 3-13 4-68 6-12 7-4 2-1 27-1 4-6v-9l-4-7-9-3zm185 0-8 3-4 4-1 3v8l3 5 2 2 25 1 8 3 6 7 2 7 3 56 2 15 5 15 8 11 6 5-1 3-6 5-7 10-4 11-2 8-2 34-2 33-2 8-7 7-5 2-27 1-4 4-1 2v9l3 5 3 3 8 2h15l15-3 13-7 9-9 5-10 2-11 5-68 2-11 5-8 7-4 8-2 10-2 6-5v-12l-7-6-15-2-8-4-5-6-3-14-5-68-2-11-5-10-9-9-12-6-11-3-7-1zm-123 10-3 2 1 8 1 1 10 1h58l12-1 1-9-2-2zm-46 48v9l2 2h166l2-2v-9zm52 44-8 2-1 2v6l4 2h78l1-1-1-9-1-1-16-1zm-45 39-6 1-1 2v8l2 2h167l1-2v-9l-6-2zm43 48-6 1-1 8 1 3 6 1h71l4-1v-11l-3-1zm64 37-114 1v9l3 2h165l2-1v-10zm-69 44-1 1v10l1 1h79l1-1v-10l-1-1z" fill="#04BADE"/>
<path transform="translate(1943,845)" d="m0 0h70l6 9 14 25 11 19 4 4-1 5-7 11-14 25-12 20-1 1h-70l-9-14-12-22-5-5-4-11-2-4v-8l5-10h-82v-1h84l2-5 14-25 8-13z" fill="#01B05B"/>
<path transform="translate(35,845)" d="m0 0h69l5 5 12 22 9 15v2h11v1l-8 1 5 10v6l-7 12-1 4h-2l-2 7-6 9-13 23-2 2h-70l-5-8-10-17-13-23-7-11 2-4 9-15 14-25 9-15z" fill="#00B15B"/>
<path transform="translate(1907,1069)" d="m0 0h21l21 1 7 14 14 24 9 15-1 8-10 17-9 16-8 14-3 4h-65l-6-9-14-24-3-6-14-1v-1h11l-3-8-3-5 1-5 4-8 2-5 6-8 6-11 10-17 2-4z" fill="#F98E2D"/>
<path transform="translate(124,1069)" d="m0 0h41l3 5 8 14 10 17 4 5 7 14-1 6-4 6-2 5h19v1h-21l-2 5-6 11-13 22-2 2h-65l-5-8-14-25-10-17-2-4 1-6 9-16 21-36z" fill="#F98E2D"/>
<path transform="translate(1273,895)" d="m0 0h275l5 5 9 16 14 24 17 29 9 16 8 14 16 27 13 23 9 15 6 11 14 24 9 16 10 18-1 7-9 16-14 24-13 23-9 15-14 25-9 15-13 23-13 22-20 35-14 24-6 10-5 4-264 1-10-1-6-5-16-28-14-24-15-26-16-28-11-19-10-17-15-26-16-28-11-19-10-17v-6l4-9 8-13 13-23 9-15 13-23 11-19 8-13 6-11 11-19 16-28 15-26 16-28 6-8zm25 4-19 1-3 1v2l-4 2-8 14-4 5-4 7-8 15-5 6-4 7v2h-2l-4 8-9 16-7 14-7 12-6 9-12 21-10 21-7 11-6 9-11 19-6 11v2h-2l-3 7-5 11v9l7 12 5 9 15 25 7 12 1 3h2l2 7h2l2 5 18 33 12 21 6 11 5 8 4 8 8 13 9 17 6 9 1 2h2l1 4 8 14 10 13 7 2h261l5-5 2-4h2l7-14 2-3v-3h2l3-7 2-5h2l3-6 2-2 3-6 3-5v-2h2l1-4 3-3 3-6 9-17 5-10 3-4v-3h2l2-8h2l7-13 2-3v-3h2l3-6v-2h2l3-7 5-9v-3l4-2 1-5h2l1-5h2l7-14 2-1 1-3 3-3 1-6h2l2-3v-4h2l6-11 5-16-3-10-10-18-11-19-12-22-5-7-5-9-4-6-9-17-6-9-8-14-12-20-7-12-4-8-7-11-8-16-9-16-3-5h-2l-2-6-4-6-3-2-25-1z" fill="#01B4CC"/>
<path transform="translate(501,895)" d="m0 0h275l5 4 15 26 11 20 9 15 9 16 14 24 11 19 14 24 24 42 14 24 10 17 3 6v6l-6 12-10 17-14 24-16 28-10 17-8 14-14 24-9 16-14 24-9 16-15 26-8 13-3 5-3 2h-274l-5-2-13-23-14-24-15-26-11-19-8-13-6-11-10-18-11-19-17-29-30-52-1-7 9-17 10-17 6-10 14-24 16-28 9-16 15-25 14-25 8-14 9-15 13-23 13-22zm90 4-49 1h-31l-7 2-5 4-4 7v2h-2l-4 6v3h-2l-6 12v3l-2 1-8 13-10 18-9 14-3 5v2l-3 1-7 14-10 19-1 5h-2l-9 16-7 14-3 3-6 10-6 12-4 6-6 13-6 11-6 9-2 7 1 10 7 12 4 7 9 17 8 14 8 15 6 9 6 12 8 13 4 9 5 8 10 17 8 15 4 7h2l2 5 9 16 5 10 6 10 6 11 7 12h2l2 4 3 3 16 2h82l50-1h116l8-4 3-2 1-5h2l2-6h2l4-10 5-7 5-9 9-15 8-12 5-10 4-7v-3h2l10-20v-3l3-1 5-10 2-2-1-2h2l5-10v-2h2l4-7 1-6 2-1 2-3v-3h2l3-5v-2h2l1-4h2l2-4v-3h2l5-9v-4h2l10-19v-3h2l9-19 1-4-4-10-3-4-3-7-6-9-8-16-10-17-5-8-5-11h-2l-2-7-7-10-4-7-2-4h-2l-1-6h-2l-2-6-5-7-3-7-7-12-7-11-3-7-7-10-3-7-6-8-12-22-9-16-3-3-8-1h-59z" fill="#01B4CC"/>
<path transform="translate(1392,1500)" d="m0 0 5 1 45 27 22 13 24 14 7 4v-56l5-1 2 1v122l-5-2-46-28-26-15-24-14-2-1 1 21v35l-4 1-3-1z" fill="#00B15B"/>
<path transform="translate(1113,1504)" d="m0 0h61l18 3 11 4 9 7 7 8 5 11 2 7v17l-3 12-6 10-6 7-9 6-10 4-7 2 16 9 18 5 2 4-2 2h-9l-12-4-15-8-13-9-7-5v24h-51v-110zm50 6-1 43v32l6 7 7 4h7l13-4 9-5 7-6 6-10 3-11v-14l-4-12-6-9-8-7-8-4-12-3-7-1z" fill="#02B15C"/>
<path transform="translate(578,1503)" d="m0 0 63 1 15 4 11 6 10 9 8 13 4 11 1 5v20l-3 12-7 13-9 10-10 7-13 5-8 1h-63l-1-116zm51 6-1 1-1 10v94h15l10-3 11-6 9-8 7-11 4-12 1-5v-14l-3-12-6-12-7-8-10-7-12-5-12-2z" fill="#01B15B"/>
<path transform="translate(1018,1229)" d="m0 0 3 1 10 22 15 34 16 35 9 20 16 35 13 30 12 26 2 7-7 1h-172v-2l25-6 58-16 30-8 16-4-10-37-12-47-10-39-12-46z" fill="#122245"/>
<path transform="translate(306,321)" d="m0 0 11 3 49 16 28 10 36 12 38 13 36 12 38 13 4 1 3 1v2l-13-1-22-8-32-10-50-17-27-9-11-3-12-5-12-4-17-6-13-4-10-3-12-3h-5v7l6 24 5 18 9 35 3 12 4 13 2 9 5 17 6 27 4 16 7 25 3 15 4 13 2 9 4 15 8 31 4 15 3 12 3 9 5 22 1 10 1 26v105l1 16 1 63 6-1h2l3-9 5-10 14-24 3-5 2-5 1-75v-23l-1-24v-19l1-20 2-2 14-2h70l17 1 107 2 49 2 10 2 36 8 15 4v2h-6l-1-1-8-1-11-3-1-1-8-1-4-1v-2l-5 1-1-1h-5l-1-1-54-1-159-2h-52v33l2 49 1 43v35l-8 14-14 24-16 26-1 2-4 7-5 2-1-2-1-21-1-114-2-102-3-18-6-21-5-22-3-9-5-22-5-19-8-31-8-30-12-48-5-19-12-47-10-39-6-24z" fill="#70C9BD"/>
<path transform="translate(704,1503)" d="m0 0h93l2 1v5l-1 1h-44v24l48 1 1 1v5l-5 1h-44v72h52l1 5-1 1h-102l-1-7v-109z" fill="#02B15D"/>
<path transform="translate(937,1502)" d="m0 0 5 1-1 5-16 31-10 18-17 32-12 22-9 18-4-2-9-17-9-16-26-46-10-18-13-23-1-4 58 1 6 9 10 19 10 18 10 19 3-3 10-20 10-18 10-21z" fill="#01B15B"/>
<path transform="translate(995,1503)" d="m0 0h105l2 1v6h-31v109l-1 1h-51v-109l-31-1-1-1v-5z" fill="#00B15B"/>
<path transform="translate(1278,1490)" d="m0 0h8l5 3 2 4-1 6-6 9-1 2h9l5-8 7-4 11-1 9 2 8 6 5 6 10 5 7 7 3 6 1 4v17l2 8v11l-3 7-7 8-4 2-4 9-5 5-16 8-9 3h-7l-8-3-4-6h-8l1 5 4 5 1 6-4 6-3 2h-8l-5-4-2-5 1-5 6-5 1-4-15-4-5-6-2-6-1-13-5 1-5 4-2 1h-7l-5-4-1-2v-7l3-5 3-2h8l7 6 5 1-1-23-5 1-6 5-5 1-6-3-3-4v-7l3-5 3-2h8l7 6 5 1v-15l3-6 5-4 3-1 11-1-2-5-5-6-1-5 3-5zm3 5-2 1v5l2 2 4-1 1-5zm27 13-4 2-2 4v11l2 1h6v4l-8 5v12l5-2 11-5 14-2h7l3 1 1 4-17 1-3 3 3 7v6l-4-1-5-8-1-1-7 1-6 5-1 3v12l6-2 8-4h4l2 5-10 3-9 6-1 2v22l4 5 7 1 7-4 8-4 8-3 2-2v-3h-11l-5 3-6 4h-2l1-6 4-5 2-16h3l3 14h8l11-4 7-6 2-4v-11l-4-1-8 5-8 1-2-4 6-2 8-5 5-6 1-4v-9l-4-8-5-4-5-2h-7l-3 2-2 7-4-2-4-6-8-6-1-4 9 2 2 2h6l2-4-5-5-3-1zm-35 13-8 2-1 2v68l4 4 3 1h23l1-1v-6l-19-1-3-1-1-3v-54l3-3 20-2v-5l-5-1zm7 13-2 1v49l1 1h15l1-1v-49l-1-1zm-41 7-1 1v5l4 1 3-2-1-5zm1 29-2 3 1 4h5l1-4-2-3zm41 47-2 2 1 4 5-1 1-2-1-3z" fill="#04B15E"/>
<path transform="translate(1638,473)" d="m0 0h2l-1 7-6 12-3 7v4l10 1 47 1 123 2 11 1 1 5-12 17-14 17-10 13-11 14-8 10-11 14-12 15-11 14-9 11-10 13-5 7h-2l-2 4-11 15h-2l-2 4-10 13-10 12-7 9-10 13-6 8-1 3-1 25-1 56-1 82-1 10h-3l-5-6-33-55-1-4-1-24-2-94-1-8-9-6-18-10-6-3-22-12-16-9-24-13-18-10v-2h5l5 3 14 8 12 6 19 10 20 11 32 16 9 7 2 4 2 41 1 31 1 19v15l1 22 6 12 7 11 6 11 5 9 4 5h2l1-9v-32l1-9v-68l1-7v-32l4-10 8-12h2l1-4h2l2-5 4-6 5-5 10-13 2-3h2l2-4 10-14h2l2-5 9-10 6-8h2v-2h2l2-6 4-5h2v-3l5-5 7-9 12-15 4-6 11-15h2l2-4 12-16 2-3h2l2-5 3-3 1-3 4-4h2l2-4 10-13 1-6h-24l-8-1-17-1-80-1-50-1-5-3v-6l6-11 4-10z" fill="#6DC8BB"/>
<path transform="translate(1277,891)" d="m0 0h217l54 1 6 4 8 14 6 11 11 19 5 9 11 18 12 22 5 8 7 12 7 11 5 9 12 22 12 20 8 14 6 9 4 8 11 19 6 12-1 7-3 6-9 15-10 16-7 14-8 13-5 10-11 18-9 17-8 12-6 12-9 14-9 16-7 12-1 3h-2l-2 6-20 36-10 16-6 3-273 1-7-4-8-13-6-11-6-9-5-10-3-5-5-9-8-13-6-10-6-12-7-12-5-9-7-12-8-13-7-12-12-20-8-14-10-17-9-16-9-15-2-5 1-9 7-14 7-12 12-22 7-10 6-10 9-17 10-17 6-11 9-13 12-22 5-10h2l2-6 5-8 4-9 12-20 7-12 7-11 4-8 6-5zm-4 4-7 6-15 26-13 23-15 26-12 21-10 17-22 38-13 23-13 22-9 16-7 11-4 9v6l12 21 14 24 16 28 14 24 13 22 7 12 6 11 8 14 14 24 12 21 15 26 6 8 3 2 10 1 264-1 6-5 6-11 14-24 16-28 28-48 9-16 11-19 8-14 11-19 15-26 11-19 5-9-1-7-13-24-8-13-13-23-6-10-24-42-10-17-8-14-10-17-12-21-14-24-11-19-7-11-2-1z" fill="#0B3A63"/>
<path transform="translate(501,895)" d="m0 0h275l5 4 15 26 11 20 9 15 9 16 14 24 11 19 14 24 24 42 14 24 10 17 3 6v6l-6 12-10 17-14 24-16 28-10 17-8 14-14 24-9 16-14 24-9 16-15 26-8 13-3 5-3 2h-274l-5-2-13-23-14-24-15-26-11-19-8-13-6-11-10-18-11-19-17-29-30-52-1-7 9-17 10-17 6-10 14-24 16-28 9-16 15-25 14-25 8-14 9-15 13-23 13-22zm65 2-64 1-5 5-10 16-20 34-5 10-10 17-8 12-5 10-10 18-11 19-13 23-5 9-12 21-11 20-7 11-4 8v8l7 14 9 16 8 14 13 23 8 14 5 8 5 9 11 19 8 13 6 11 14 24 14 25 14 24 10 17 8 3h259l9-1 4-2 12-20 14-24 10-17 11-19 14-24 6-11 13-23 4-6 6-11 9-15 6-11 9-16 8-13 6-11 5-10v-7l-8-16-8-13-7-13-8-13-6-11-13-23-11-19-12-21-8-13-10-18-14-24-12-20-10-17-6-11-3-2-170-1z" fill="#0483A8"/>
<path transform="translate(1273,895)" d="m0 0h275l5 5 9 16 14 24 17 29 9 16 8 14 16 27 13 23 9 15 6 11 14 24 9 16 10 18-1 7-9 16-14 24-13 23-9 15-14 25-9 15-13 23-13 22-20 35-14 24-6 10-5 4-264 1-10-1-6-5-16-28-14-24-15-26-16-28-11-19-10-17-15-26-16-28-11-19-10-17v-6l4-9 8-13 13-23 9-15 13-23 11-19 8-13 6-11 11-19 16-28 15-26 16-28 6-8zm83 2-81 1-6 5-10 17-5 8-6 11-17 28-11 19-10 18-9 15-11 20-13 23-16 28-7 11-4 8-12 21-1 7 4 10 28 48 12 21 15 26 9 16 5 8 6 11 9 16 15 26 18 30 7 12 4 7 5 4 3 1h251l18-1 5-5 7-10 6-11 16-27 12-21 14-24 12-21 14-24 6-10 12-22 10-17 15-26 7-12 2-8-3-7-10-17-14-25-20-35-6-10-18-32-8-13-8-14-6-10-10-18-9-15-12-21-11-18-1-1-12-1z" fill="#0483A8"/>
<path transform="translate(506,892)" d="m0 0h267l7 3 4 4 7 12 6 10 5 8 4 8 13 23 10 17 13 23 8 13 8 14 6 10 14 25 12 21 8 13 9 16 8 13 3 8-1 8-4 8-10 17-10 18-8 13-15 25-12 21-6 11-8 13-9 16-9 15-26 46-7 12-4 8-7 11-4 3-3 1h-275l-4-2-7-11-7-14-4-5-7-14-8-13-6-11-9-15-10-17-9-15-12-21-7-12-13-23-8-14-9-15-15-26-8-13 2-9 7-12 7-11 6-11 4-6 12-22 7-11 11-19 6-12 3-4 3-7 8-11 3-6 5-8 6-12 15-25 5-7 5-10 13-22 10-17 3-3zm-5 3-5 3-14 25-12 21-9 15-9 16-13 23-9 15-10 17-13 23-15 26-6 10-14 24-10 18-1 7 14 25 16 27 13 23 10 17 14 24 6 11 11 19 14 24 30 52 8 14 5 2h274l5-4 6-11 15-26 6-10 6-11 20-35 13-22 9-16 11-19 14-24 15-26 14-24 5-10v-6l-4-8-10-17-14-24-9-16-14-24-15-26-17-29-9-16-8-14-13-22-7-13-15-25-4-3z" fill="#0B3A63"/>
<path transform="translate(1147,160)" d="m0 0 3 1-8 6-6 3-14 8-19 11-19 10-10 6-3 2h-3v2l-8 4-12 7-16 9-22 12-8 5-11 6-9 5h-3v2l-17 9-33 18-16 9-11 6-16 9-9 4h-2v2l-4 2h-7l-11-8-5-5-12-9-12-11-10-7-12-10v-2l-5-2v-2l-5-2-5-4v-2l-4-2-12-10-10-8-12-11-9-7-10-9-13-11-12-9v-2l-12-6-4 2-12 23-10 19-9 16-6 11-4 8-5 8-4 7-1 4h-2l-2 6-6 11-12 21-13 24-8 14-7 12-6 11-12 20-8 11-1 1-10-1-1-3 8 1 3-3 10-18 16-30 12-22 9-16 6-11 15-28 12-22 14-26 10-18 12-21 6-12 7-9 5 2 13 11 22 18 14 12 8 7 14 12 11 9 26 22 11 9 11 10 7 5v2l4 2 13 11 10 8v2l5 2 6 1 15-8 33-18 16-9 41-23 41-23 12-6 4-3 20-11 3-1 4-3 14-8 19-10 13-8 11-6 6-3 9-5z" fill="#66C7B5"/>
<path transform="translate(1758,205)" d="m0 0h6l-1 7-8 18-5 12-6 12-12 26-9 20-9 19-12 26-7 15-14 29-8 18-7 14-13 28-11 23-3-1 2-9 9-21 6-12 10-22 11-24 5-11 4-9 5-12 10-22 8-16 9-20 4-11h2l1-4 3-7 9-17 4-10 8-18 3-7v-6l-10 2-9 3-30 6-4 2-12 3-15 3-16 5-22 5-11 3-11 2-15 5-13 2-19 5-14 3-17 4-13 3-11 2-1-3 8-1 4-2 16-4 18-5 16-4 70-18 32-8 54-14 26-6z" fill="#6DC8BB"/>
<path transform="translate(1633,490)" d="m0 0 1 4-1 7 9 1 29 1 89 1 53 1 10 1 2 2v5l-6 10-4 4-8 11-13 16-15 20-9 10-2 4h-2l-2 5-8 9-3 5h-2l-2 5-9 10-22 28-13 16-13 17-10 12-22 28-10 12-2 4-2 78-1 87-1 11-1 2-4-1-7-10-8-13-6-10-4-6-5-9-8-13-3-8-1-32-2-92-4-4-17-9-15-8-28-16-15-8-13-7-10-6-11-6-34-18-10-6-12-6-18-10-25-14-12-7-1-2 5 2 21 11 18 10 24 13 18 10 22 12 29 16 22 12 16 9 18 10 22 12 10 6 2 2 1 8 2 94 1 24 3 7 14 24 12 20 7 11 4 3 1-10 1-82 1-56 1-25 5-9 7-8 21-27 9-11 5-7h2l2-4 11-15h2l2-4 12-16 10-12 8-10 14-18 13-16 14-18 11-14 13-16 14-19 1-6-11-1-123-2-47-1-10-1-1-5z" fill="#0B3A63"/>
<path transform="translate(1056,578)" d="m0 0 3 1 7 8 8 8 7 8 14 14 7 8 9 10 12 13 12 12 1 5h3l6 6v4h3l7 7 2 4 1 1 7 6 9 10 10 10 7 8 9 10 4 4v2h2l2 3v3l-6-1-40-15-26-10-37-14-42-16-54-21-42-16-26-10v-2l5-1 13 5 14 5 8 4 7 3 7 2 16 6 18 6 12 5 20 7 10 5 11 4 17 6 10 4 16 6 15 5 7 3 17 6 8 4 8 3 9 4h6l-3-5-3-3-7-9-4-4v-2l-2-1-6-7-15-15v-2l-4-2v-2h-2v-2h-2l-7-8-9-10-8-10-1-3h-2l-7-8-4-4v-2h-2l-4-4v-2l-4-2-7-8v-2h-2v-2h-2l-6-8-11-12-7-8-3-4z" fill="#71C9BE"/>
<path transform="translate(843,626)" d="m0 0 11 7 12 9 11 8 18 13 17 12 12 8 8 6 18 13 17 12 18 13 14 10 18 13 1 2 5 2 6 5v3h-7l-20-5-39-9-32-8-23-5-15-4-32-8-22-5-44-11v-2l5-1 28 6 11 3 18 4 20 5 30 7 28 6 15 4 18 4 16 4 14 4 10 2-5-6-22-16-2-1v-2l-5-2-6-4v-2l-4-1-9-7-14-10-5-3-5-5-16-11-16-13-10-7-17-12-10-7-12-9-8-7z" fill="#6EC9BC"/>
<path transform="translate(1323,62)" d="m0 0h4l5 18 13 53 6 22 5 23 5 19 5 21 12 48 5 22 3 10 4 1 4-2 4 1-3 2-3 1h-10l-5-18-2-6-1-7-3-9-10-42-4-13-3-15-6-21-6-25-7-29-6-27-3-10-1-10h-2v-2l-8 4-9 5-11 6-19 10-5 3-9 5-10 6-11 6-28 16-16 9-33 18-9 5-4-1 3-1 1-3 17-9 21-12 22-12 21-12 18-10 22-12 43-24z" fill="#6EC9BC"/>
<path transform="translate(1231,531)" d="m0 0 4 2 11 12 7 9 9 10 8 10 11 13 12 14 9 11 9 10 8 10 12 14 9 11 9 10 11 14 4 5-1 2 1 2v3l-4 1-8-4-28-13-68-32-16-8-34-16-25-12v-2l3-1 15 7 21 9 32 16 21 9 7 4 8 3 15 7 16 7 8 5 16 8 9 5 3 1-4-8-7-9-5-5v-2h-2l-1-4h-2l-1-4-4-2-6-8-5-5-11-14-7-7-2-3v-3l-4-2-3-4v-2h-2l-8-11-3-2v-2h-2l-4-6v-2h-2l-3-4v-2h-2l-11-14-5-6v-2h-2l-3-5v-2l-3-1-10-13z" fill="#6AC8B9"/>
<path transform="translate(304,320)" d="m0 0h8l18 6 13 5 17 5 14 5 33 11 14 5 10 3 13 5 10 3 13 5 13 4 10 4 17 5 10 4 15 5 20 7-3 1-8-1-2-2-56-19-85-29-66-22-26-9 2 12 9 37 16 62 6 24 12 46 5 20 16 62 5 19 3 12 5 19 8 32 2 13 2 102 1 114 1 23 5-3 3-3-2 7-4 4-4-1-1-1-1-109-1-52-2-55v-23l-2-16-4-17-4-14-4-17-4-13-4-19-4-12-3-15-5-17-5-21-4-16-10-38-11-43-7-28-5-18-10-42-2-6z" fill="#0A3A62"/>
<path transform="translate(917,1658)" d="m0 0h14l3 5 7 30 3 12 1 1 8-13 8-14 6-11 5-9 2-1h12l1 3-7 2-2 28-1 24 9 2v2h-26v-2l5-2h3l3-37v-6l-12 21-15 25-3 2-3-6-9-36-1-2-8 27-1 4v7l6 3v2h-20l5-6 6-16 8-28v-5l-6-3z" fill="#F88F2F"/>
<path transform="translate(1762,202)" d="m0 0 5 1-1 7-5 14-18 38-12 27-12 26-11 23-16 34-8 16-14 29-7 16-4 8-10 21-8 16-2 2 1-5 13-28 15-32 13-28 14-29 6-13 10-22 8-16 8-18 15-32 6-14 4-8 10-23 2-7-24 5-40 10-31 8-19 5-48 12-34 9-28 7-4 2-12 2-4 2-4 1-7 1-4 2h-8l4-2 26-7 21-6 13-3 14-4 34-9 29-7 5-2 30-7 54-14 25-6z" fill="#0B3A63"/>
<path transform="translate(690,167)" d="m0 0 5 1 10 8 11 9 10 9 11 9 10 8 11 10 11 9 15 13 11 9 5 4v2l4 2 14 12 11 9 10 9 8 7 7 6 11 9h6l5-1-4 3-6 1-7-4-5-5-14-12-8-6v-2l-4-2-11-9-12-11-10-8-14-12-10-8-15-13-10-9-14-11-9-8-14-11-10-9-7-5-3 1-6 9-6 11-14 26-15 27-15 28-13 23-9 17-12 22-15 28-12 22-11 20-4 2-5-2 3-1 4 1 2-5 9-17 8-15 9-16 7-14 6-10 8-16 9-17 8-15 13-23 12-23 5-8 7-14 6-10 12-22 7-11z" fill="#0B3A63"/>
<path transform="translate(872,1656)" d="m0 0h14l8 3 6 5 4 8 1 11-2 12-6 12-9 9-11 4h-18l-8-5-5-10-1-3v-17l4-11 6-8 8-7zm4 4-8 2-6 4-6 9-3 10v18l4 9 6 4 4 1h8l6-2 7-5 5-8 3-11v-17l-4-8-5-4z" fill="#F88F2F"/>
<path transform="translate(1147,160)" d="m0 0 3 1-8 6-6 3-14 8-19 11-19 10-10 6-3 2h-3v2l-8 4-12 7-16 9-22 12-8 5-11 6-9 5h-3v2l-17 9-33 18-16 9-11 6-16 9-9 4h-2v2l-4 2h-7l-4-3 1-2 9 1 15-8 33-18 16-9 41-23 41-23 12-6 4-3 20-11 3-1 4-3 14-8 19-10 13-8 11-6 6-3 9-5z" fill="#6CC8BA"/>
<path transform="translate(1056,578)" d="m0 0 3 1 7 8 8 8 7 8 14 14 7 8 9 10 12 13 12 12 1 5h3l6 6v4h3l7 7 2 4 1 1 7 6 9 10 10 10 7 8 9 10 4 4v2h2l2 3v3l-6-1-16-6-5-2v-2l8-2-3-5-3-3-7-9-4-4v-2l-2-1-6-7-15-15v-2l-4-2v-2h-2v-2h-2l-7-8-9-10-8-10-1-3h-2l-7-8-4-4v-2h-2l-4-4v-2l-4-2-7-8v-2h-2v-2h-2l-6-8-11-12-7-8-3-4z" fill="#6EC9BC"/>
<path transform="translate(796,1658)" d="m0 0h43l-1 4-14 19-12 15-9 12-5 7 32-1 5-10h3l-1 7-2 8h-48l1-4 7-9 10-13 14-18 9-12h-27l-5 10h-2l1-14z" fill="#F59134"/>
<path transform="translate(798,704)" d="m0 0 12 2 18 4 11 3 18 4 20 5 30 7 28 6 15 4 18 4 16 4 13 4v3l-3 1-27-6-36-9-23-5-15-4-32-8-22-5-44-11v-2z" fill="#71C9BF"/>
<path transform="translate(444,682)" d="m0 0h52l159 2 57 1-2 2h-26l-48-1-155-1-36-1v18l2 40 2 61v40l-6 11-11 19-6 10-8 13-8 12-2 4-1-4 1-2 7-10 6-10 14-24 11-19v-35l-1-43-2-49v-33z" fill="#0A3A62"/>
<path transform="translate(1028,1658)" d="m0 0h4l1 2 5 35 2 16 1 3 5 3v2h-21l1-3 6-1-1-20-20 1-6 8-4 7-1 4 6 1v3h-17l-1-2h2l2-4 9-13 12-19 9-14zm-2 11-12 19-1 3 5 1h12l-1-15-1-7z" fill="#F88E2F"/>
<path transform="translate(880,1765)" d="m0 0 7 1 2 3-1 7-2 5v5l4-1 7-13 7-6 4-1 4 4v7h-2l-2-6-5 2-4 7v6l1 2h6l6-5 6-11 5-6 3 1-2 5-4 7v9l5-1 6-11 9-9 4-1 6 3-1 5-5 11-5 5h-9l-4-1-2 1h-7l-3-4-9 6h-7l-5-4-5 2h-7l-4-2-5 3-6-1-3-5 7-11 7-7zm2 2-6 4-5 8-2 7 3 1 5-3 9-12-1-4zm61 1-9 11-1 6 5 1 3-8 1-3 5-2-1-5z" fill="#1C3454"/>
<path transform="translate(1265,1656)" d="m0 0h8l5 2 2 2v10h-3l-5-7h-11l-5 4-2 9 1 6 16 4 6 4 2 3v11l-6 9-8 6-3 1h-16l-5-3 1-11 1-2h2l4 9 4 2h7l6-3 4-4 1-9-2-4-16-5-5-4-2-6 1-10 4-6 6-5z" fill="#F98E2D"/>
<path transform="translate(1084,1656)" d="m0 0h10l10 3 1 1v11l-2 2-5-8-5-2h-14l-8 4-6 9-2 7v19l4 7 3 3 10 3 9-1 11-5 1 4-9 6-3 1h-19l-8-4-6-8-2-5-1-13 2-10 5-10 8-8 10-5z" fill="#F88F30"/>
<path transform="translate(1215,1658)" d="m0 0h3l3 12 5 40v4l5 2 1 3h-19l1-3 4-2-1-19-20 1-7 10-3 5v4l5 2v2h-18l6-7 15-24 14-22zm-2 11-7 9-6 10v3l3 1h13v-11l-2-12z" fill="#F88E2F"/>
<path transform="translate(1157,1656)" d="m0 0h8l6 2v12h-3l-3-6-2-1h-10l-4 3h-2l-2 6 1 7 3 3 16 5 5 6v11l-3 6-5 6-7 4h-16l-6-3 1-12h3l3 8 6 2 9-1 5-4 2-4v-8l-4-4-14-4-6-7-1-7 3-9 4-5 8-5z" fill="#F78F31"/>
<path transform="translate(868,643)" d="m0 0 5 2 13 10 16 11 11 8 12 8 8 6 34 24 5 3v2l4 2 13 8 17 13 19 14 8 6 1 4h-10l-17-3-8-3-20-4-32-8-29-7-13-3-32-8-21-5-9-2-18-5-16-4-30-7-17-5 4-1 57 14 32 8 21 5 29 7 20 5 59 14 18 4 20 5 7 1-1-3-8-6-5-1 1-2-17-12-15-11-17-12-18-13-14-10-20-14-18-13-16-11-13-10z" fill="#0B3A63"/>
<path transform="translate(1257,531)" d="m0 0 5 2 16 8 15 8 22 12 2 4 3-1 8 5v2l3-1 11 6 17 9v2l6 2 12 7v2l3-1 15 8 22 12 25 14 21 11 18 11 1 3-6-2-28-15-23-13-28-15-16-9-44-24-18-10-26-14-25-14-13-7z" fill="#6AC8B9"/>
<path transform="translate(1524,1765)" d="m0 0 6 1 3 4-1 5-4 9v2l5-1 6-7 6-9 4-3 7 1 4 6 4-5 5-3-1 6-5 10v5l5-1 7-8 5-6 6-5 6 1 3 3-2 1-6-1-5 6-3 3-1 7h6l2-7 4-5 1-2h2l-1 8-2 4-6 5h-8l-4-4-4 4h-7l-4-2-7 4h-6l-5-5-1-2-5 5h-8l-4-3 1-4 5-7 1-6-6 1-6 9-2 7 5 1v2l-7 1-4-2 1-6 4-8 8-8zm26 5-5 5-2 4v6l2 3h7l5-4 2-5-1-5-5-4z" fill="#1B3759"/>
<path transform="translate(1240,538)" d="m0 0 7 6 5 7 5 5 14 17 11 13 13 15 10 11 9 11 22 26 13 15 11 13 14 19-1 4-10-3-15-7-17-8-28-13-38-18-33-16-23-11-26-13 3-1 32 16 28 13 33 16 68 32 11 5 6 1-3-5 1-2-2-4-11-13-9-11-9-10-8-10-12-14-9-11-7-8-9-11-10-11-8-10-22-26-6-7z" fill="#0F4266"/>
<path transform="translate(1148,1750)" d="m0 0 4 1-2 5-6 10 8 1 1 2-11 1-3 11 1 5h6l4-4 6-12 6-5 5-1 4 3-1 6-4 6-7 1 6-7 1-5-4 2-4 9-1 6 6 2 5-2 4-5 2-9h9l6-5 4 1 3 6-1 7-5 8h-5l1-5 3-5v-5h-4l-7 10-2 5-5 1-7 1h-8l-5-4-3 1-3 3h-7l-4-4v-8l4-12 8-14z" fill="#182E50"/>
<path transform="translate(1183,606)" d="m0 0 9 4 12 5 11 5 23 11 16 8 19 8 7 4 8 3 15 7 16 7 8 5 16 8 10 6-1 2-5-1-29-14-28-13-50-24-34-16-25-12v-2z" fill="#70C9BE"/>
<path transform="translate(1050,569)" d="m0 0 7 6 12 13 7 7 7 8 14 14 7 8 8 8 7 8 4 5 14 14v2l4 2 11 12 12 13 7 8 6 5 7 9 5 5 13 14v2l3 1 5 7 1 4-5 1-21-7-9-4-16-6-13-5-11-4-28-11-10-3-19-8-9-4-2-2 5 1 26 10 37 14 58 22 14 5-2-6h-2l-7-8-13-14-7-8-11-11-7-8h-3l-1-4-7-8-4-1-1-5-5-5h-3l-1-5-20-20-7-8-12-13-7-8-14-14-7-8-8-8-7-8z" fill="#0B3E63"/>
<path transform="translate(309,338)" d="m0 0h4l6 24 5 18 9 35 3 12 4 13 2 9 5 17 6 27-4 2-3-8-7-28-5-19-12-47-10-39-3-12z" fill="#70C9BE"/>
<path transform="translate(503,1743)" d="m0 0h10l3 4-1 7-6 8h-4l2-5 4-5v-5l-3-1-6 3-6 8-5 10-2 9 1 8 4 5h8l9-7 7-7 1-2h2v-2l9-6 6 1 2 2-1 8-2 4-1 6 7-1-4 4h-7l-4-1-5 2-5-1-1-1v-5l-10 8-6 2h-7l-7-6-3-9 2-11 6-12 8-9zm30 24-6 3-6 7-1 2v8h6l6-11 3-4-1-5z" fill="#183052"/>
<path transform="translate(1296,77)" d="m0 0 3 1-5 5-16 8-7 4-9 5-10 6-11 6-28 16-16 9-33 18-9 5-4-1 3-1 1-3 17-9 21-12 22-12 21-12 18-10 22-12 18-10z" fill="#6DC8BB"/>
<path transform="translate(1084,1742)" d="m0 0 8 1 3 3v7l-4 9-4 1 1-7 1-9-5-1-6 4-4 7 1 4 15 10 3 4 1 6-3 6-6 5-3 1h-10l-7-4-2-4v-8l4-4 4-1-2 7 1 7 4 3h9l5-5-1-9-5-2-9-6-3-3-1-7 4-8 7-6z" fill="#1B2F4F"/>
<path transform="translate(607,1742)" d="m0 0 2 1-3 9-9 21-2 5v7h4l8-12 8-7 7-1 3 3v7l-2 5v5h5l-4 4h-6l-4-3 2-5 6-10-1-3-5 2-7 8-1 7 4 2v2h-8l-4-1-8 1-3-3-2-5 6-15 5-10 4-9z" fill="#1C3656"/>
<path transform="translate(1814,508)" d="m0 0h7l1 5-12 17-14 17-10 13-11 14-8 10-11 14-12 15-11 14-9 11-10 13-5 7h-2l-2 4-11 15h-2l-2 4-10 13-10 12-14 18-2-1 11-15h2l2-4 11-15h2l2-4 14-18 12-15 1-2h2l2-4 10-13 12-15 11-14 9-12h2l1-4h2l2-4 9-12 2-3h2l2-4 9-12 9-11 10-13 9-11 2-4v-3l-4-1z" fill="#80CDCC"/>
<path transform="translate(1748,205)" d="m0 0m-6 1h6v2l-48 12-31 8-19 5-48 12-34 9-28 7-4 2-12 2-4 2-4 1-7 1-4 2h-8l4-2 26-7 21-6 13-3 14-4 34-9 29-7 5-2 30-7 54-14z" fill="#0B3A63"/>
<path transform="translate(1426,1742)" d="m0 0 4 1-1 7-6 10-8 8-2 4 1 5 5 5 1 2h-4l-2 4-5 13-3 4h-5l-1-1v-14l3-10 9-21 6-11 6-5zm-1 6-4 2-5 9 1 3 8-9 1-5zm-14 31-4 4-3 12 1 8 2-1 5-16v-7z" fill="#192F50"/>
<path transform="translate(1310,1743)" d="m0 0h3l-1 6-9 19-4 12-1 6 6-2 6-10 5-7 7-3 4 1 1 1v7l-5 5-3 2-4-1 7-6 2-6-5 1-2 4-3 5-1 10h7l8-7 3-3-1 5-5 5-4 3h-9l-4-3v-2l-5 3-1 1h-6l-3-4-1-6 5-12 11-22z" fill="#152B4F"/>
<path transform="translate(1011,1764)" d="m0 0 4 2 2 4-3 6-5 4-4 1 2-4 4-5 1-4-4 2-5 8-1 7 4 2 6-1 5-6 3-9 5 1 4 1 3-3h7l2 2-1 8-2 6 5-2 4-6h2l-1 5-5 5-4 1-5-2v-13l-4 1-3 1-2 5-4 6-1 1-10 2h-9l-4-3-1-4 3-9 7-8z" fill="#152B4E"/>
<path transform="translate(1147,160)" d="m0 0 3 1-8 6-6 3-14 8-19 11-19 10-10 6-3 2h-3v2l-8 4-12 7-16 9-20 11-2-1 4-4 5-4 7-3 2-1 4-3 20-11 3-1 4-3 14-8 19-10 13-8 11-6 6-3 9-5z" fill="#72C9BF"/>
<path transform="translate(1328,64)" d="m0 0 2 3 3 9 6 26 6 21 3 14 4 13 5 25 5 18 4 18 7 29 6 22 2 12 6 23 4 2-2 1-4-2-5-18-7-30-6-23-5-21-6-25-9-36-12-49-7-28z" fill="#0B3A63"/>
<path transform="translate(1322,61)" d="m0 0h5l-4 2-19 10-16 9-25 14-9 5-22 12-28 16-22 12-23 13-25 14-4 3-7 3-2 2-9 3 3-3 18-10 10-6 23-13 20-11 14-8 11-6 18-10 12-7h3v-2l16-8 9-5 17-10 11-6 16-9z" fill="#0B3A63"/>
<path transform="translate(739,1743)" d="m0 0h25l2 1v2l-2 1-12 1v8l-8 32h9v3l-3 1h-21v-3l9-2 5-16 4-17 2-5-14-1 2-4z" fill="#1D3554"/>
<path transform="translate(923,1765)" d="m0 0 3 1-2 5-4 7v9l5-1 6-11 9-9 4-1 6 3-1 5-5 11-5 5h-9l-4-1-2 1h-7l-3-4-7 5h-6l9-6 5-8 7-10zm20 3-9 11-1 6 5 1 3-8 1-3 5-2-1-5z" fill="#142C50"/>
<path transform="translate(690,169)" d="m0 0m-1 1 1 2-6 10-16 30-13 23-10 19-18 33-10 17-6 12-6 10-6 12-6 11-4 7h-2l2-5 12-23 7-12 6-11 15-28 12-22 14-26 10-18 12-21 6-12z" fill="#80CDCC"/>
<path transform="translate(935,1569)" d="m0 0h56l1 5-2 2h-52l-5-1 1-5z" fill="#09B363"/>
<path transform="translate(1354,1743)" d="m0 0h24l2 1-1 3-10 1-7 29-3 11h9v3l-9 1h-15v-3l9-2 3-7 8-32h-13l1-4z" fill="#1B3354"/>
<path transform="translate(1305,1462)" d="m0 0 4 1v8l1 5h8l2-14h11l14 2 3 3-1 13-2 3-3-1 1-15h-7l-1 14h-5v-13l-1-2-5-1-2 15-1 1h-10l-3-3-4-1v-14z" fill="#1D3757"/>
<path transform="translate(1226,1765)" d="m0 0 6 1 3 3-3 10-1 7h4v2l-2 1h-6l-4-2-5 3-9-2-1 1h-6l-2-2v-10l-1-6 5-1 3 3-1 14 4-4 6-10 8-7zm2 2-6 4-5 7-1 8 1 1h5l6-10 4-6-1-3z" fill="#193253"/>
<path transform="translate(831,1765)" d="m0 0 5 1 2 2v6l-5 10-7 5h-8l-4-1-6 1-3-2v-12l-3-2v-3h7l2 2v7l-1 7 4-1 5-10 7-6 2-3zm1 3-2 2 1 4 4 2v-6zm-5 5-4 5-1 7 4 1 3-4v-9z" fill="#182D4E"/>
<path transform="translate(563,1742)" d="m0 0 3 2-1 8-5 12-9 11-2 5v6h6l-3 3h-6l-5-4 3-10 8-20 8-11zm-2 8-7 11-2 7h2l5-7 3-9z" fill="#1B3252"/>
<path transform="translate(351,494)" d="m0 0 3 3 5 18 5 19 3 15 4 13v7l-2 2-3-7-7-27-8-30-2-12z" fill="#6CC8BA"/>
<path transform="translate(1390,603)" d="m0 0 5 2 22 12 25 14 21 11 18 11 1 3-6-2-28-15-23-13-28-15-7-4z" fill="#6CC8BA"/>
<path transform="translate(1259,1466)" d="m0 0 4 1v7l-5 11-2 1-5-5-5-8-3-1-7 4h-3l1 7 2 3 7-1 4-1 1 4-10 4-5-1-3-5-3-7 1-4 13-6h7l6 8 3 1z" fill="#1D3757"/>
<path transform="translate(530,1765)" d="m0 0 6 1 2 2-1 8-2 4-1 6 7-1-4 4h-7l-4-1-5 2-5-1-1-1v-5l-10 8-3 1 1-4 8-6 7-7 1-2h2v-2zm3 2-6 3-6 7-1 2v8h6l6-11 3-4-1-5z" fill="#1C3757"/>
<path transform="translate(586,1764)" d="m0 0h5v2l-6 4-6 8-2 7 6-1h3l-5 5-7-1-4-2-3 3-9-1-3-2 3-9 5-10 5-2 1 2-7 14v4l7-1 7-10 7-8z" fill="#1C3556"/>
<path transform="translate(1454,1763)" d="m0 0 4 2 5 7v7l-2 5 5 1 4-5 3-9 4-1 5 2-2 5-7 11h-7l-2 1h-7l-2-2v-6l1-2v-10h-2l-1-5z" fill="#1F3756"/>
<path transform="translate(665,1742)" d="m0 0h1l-1 7-7 14-6 16v6l5-1 4-6h2l-1 4-4 5-4 2h-5l-4-5 1-7 10-24 6-9z" fill="#1C3555"/>
<path transform="translate(1068,691)" d="m0 0 5 1 26 10 37 14 66 25 1 2-9-2-16-6-31-12-11-4-28-11-10-3-19-8-9-4z" fill="#0B3A63"/>
<path transform="translate(607,1742)" d="m0 0 2 1-3 9-9 21-2 5v7l3 1-1 3-7-1-3-7 6-15 5-10 4-9z" fill="#1C3454"/>
<path transform="translate(1436,1765)" d="m0 0h6l2 2-2 14-5 5-4 3h-7l-3-3-1-4 5-9 7-7zm-1 5-3 2-3 7v6l4 1 4-4 1-11z" fill="#183052"/>
<path transform="translate(1123,1762)" d="m0 0 2 1 4 16v7l-5 4-6 1-7-3-2-4 6-9 5-6 2-6zm-3 10-4 8-1 7 3 2 5-5v-9z" fill="#192F50"/>
<path transform="translate(1322,1764)" d="m0 0 4 1 1 1v7l-5 5-3 2-4-1 7-6 2-6-5 1-2 4-3 5-1 10h7l8-7 3-3-1 5-5 5-4 3h-9l-4-3v-2l-4-1 6-10 5-7z" fill="#1E3A5A"/>
<path transform="translate(1e3 237)" d="m0 0 3 1-21 12-16 9-41 23-25 14-11 6-5 3-3-1 10-6 17-9 4-3 12-6 15-9 11-6 16-9 12-6 9-6z" fill="#0B3A63"/>
<path transform="translate(706,1764)" d="m0 0 4 1 2 3v5l-5 5-3 2-7 2 1 4 7 1 8-7 3-2-2 6-8 6-6 1-5-2-3-4 1-8 6-9 5-3zm0 3-5 5-3 5v2l4-1 6-5 1-4-1-2z" fill="#1B3555"/>
<path transform="translate(1148,1750)" d="m0 0 4 1-2 5-6 10 8 1 1 2-11 1-3 11 1 5 5 3v1h-7l-4-4v-8l4-12 8-14z" fill="#1A3051"/>
<path transform="translate(774,1770)" d="m0 0h7l1 1v15l4-2 4-9 2-4 5 1 2 4-7 10-2 2-8 1-6-2v-11l-3-5z" fill="#152B4D"/>
<path transform="translate(1251,1763)" d="m0 0h3l4 17 1 4-4 5-2 1h-9l-7-5 2-4 7-8 2 1-3 7v5l3 1 3-3v-9l-1-2v-9z" fill="#1B3353"/>
<path transform="translate(1164,1764)" d="m0 0 5 1 2 2-1 6-4 6-7 1 6-7 1-5-4 2-4 9-1 6 7 4v1h-8l-5-4-3 1-1 2-6-1v-1l6-2 3-3 6-12 6-5z" fill="#223A57"/>
<path transform="translate(937,637)" d="m0 0 9 2 15 6 8 3 9 4 4 2 7 2 5 3-1 2-6-1-52-20v-2z" fill="#6BC8B9"/>
<path transform="translate(1011,1764)" d="m0 0 4 2 2 4-3 6-5 4-4 1 2-4 4-5 1-4-4 2-5 8-1 7 4 2h14v1l-10 2h-9l-4-3-1-4 3-9 7-8z" fill="#1B3758"/>
<path transform="translate(1084,1742)" d="m0 0 8 1 3 3v7l-4 9-4 1 1-7 1-9-5-1-6 4-4 7 1 5h-2l1 4-4-2-1-7 4-8 7-6z" fill="#2C4963"/>
<path transform="translate(843,626)" d="m0 0 11 7 12 9 11 8 18 13 7 5-1 2-7-3-13-10-12-8-11-8-12-9-4-5z" fill="#6CC8BA"/>
<path transform="translate(859,1766)" d="m0 0 4 1-1 12v4l-3-1v-2l-5 5-5 4h-7l-2-9 2-7 4-2 1 1-1 14 5-3 4-6 3-10z" fill="#24405C"/>
<path transform="translate(1273,1463)" d="m0 0h6l6 7 1 4-3 6-3 3-6 1-7-3-2-9 2-5zm0 4-3 3-1 5 2 4h7l3-3-1-7-3-2z" fill="#1E3655"/>
<path transform="translate(1502,270)" d="m0 0 4 1v2l-16 4-11 3-33 8-10 2-1-3 9-1 3-2 7-2 9-1 3-2 23-6h5l3-2z" fill="#73CAC0"/>
<path transform="translate(1586,1766)" d="m0 0 6 1 3 3-2 1-6-1-5 6-3 3-1 7h6l2-7 4-5 1-2h2l-1 8-2 4-6 5h-8l-4-4-4 1 6-8 6-7z" fill="#213E5D"/>
<path transform="translate(1359,189)" d="m0 0h2l5 22 7 29 6 22 2 12 6 23 4 2-2 1-4-2-5-18-7-30-6-23-5-21-3-12z" fill="#0B3A63"/>
<path transform="translate(1200,131)" d="m0 0 2 1v2l-11 6-12 7-15 8-9 5-4-1 3-1 1-3 17-9 21-12z" fill="#6BC8BA"/>
<path transform="translate(907,1765)" d="m0 0 4 2 1 2v7h-2l-2-6-5 2-4 7v6l1 2 4 2 1 2h-7l-5-4-4 1-1-2 4-4 5-10 7-6z" fill="#213B59"/>
<path transform="translate(1257,531)" d="m0 0 5 2 16 8 15 8 11 6 2 2v3l-5-2-17-9-18-10-11-6z" fill="#6BC8BA"/>
<path transform="translate(1355,1466)" d="m0 0 9 1 5 5-1 8-3 5-2 1h-7l-5-3-1-2v-9l2-5zm1 3-2 1-1 3v7l3 3h5l4-5v-6l-4-3z" fill="#1D3D5E"/>
<path transform="translate(1591,245)" d="m0 0m-6 1h6v2l-31 8-20 5-4 2-12 2-4 2-4 1-7 1-4 2h-8l4-2 26-7 21-6 13-3 14-4z" fill="#0A3F62"/>
<path transform="translate(995,951)" d="m0 0 7 5 1 7-2 4-4 3-5-1-1-2v-10l2-5z" fill="#213A58"/>
<path transform="translate(1052,213)" d="m0 0h4l-1 3-14 8-22 12-7 4-2-1 4-4 5-4 7-3 2-1 4-3z" fill="#71C9BF"/>
<path transform="translate(923,1765)" d="m0 0 3 1-2 5-4 7v9h6l-2 2h-7l-3-4-7 5h-6l9-6 5-8 7-10z" fill="#173153"/>
<path transform="translate(644,1764)" d="m0 0h4v2l-8 6-4 7-1 7 5-2 3-2-1 4-3 3h-7l-4-4 2-6 4-6 5-5z" fill="#1E3756"/>
<path transform="translate(1305,1462)" d="m0 0 4 1v8l1 5h8l4-10h1v10l-2 5h-10l-3-3-4-1v-14z" fill="#244563"/>
<path transform="translate(739,1743)" d="m0 0h25l2 1v2l-2 1-12 1v8l-3-4v-3l-14-1 2-4z" fill="#1E3858"/>
<path transform="translate(1259,1466)" d="m0 0 4 1v7l-5 11-2 1-5-5-5-8-3-3 5-1 6 8 3 1z" fill="#1A3557"/>
<path transform="translate(1080,952)" d="m0 0 5 1 4 3v11l-2 2h-6l-2-2v-12z" fill="#162B4D"/>
<path transform="translate(965,1770)" d="m0 0h8l2 4-4 12 6-2 4-7 2 1-2 6-5 4-6 1-3-2 1-11-1-2-3-1z" fill="#182E4F"/>
<path transform="translate(1487,1766)" d="m0 0 5 1 3 6-1 6-7 10-3-1 1-5 2-6-1-5-2-2 1-3z" fill="#192F50"/>
<path transform="translate(1189,1766)" d="m0 0 4 1 3 6-1 7-5 8h-5l1-5 3-5v-5l-6-2z" fill="#1E3352"/>
<path transform="translate(1377,270)" d="m0 0 2 2 6 24 1 2 4 1 4-2 4 1-3 2-3 1h-10l-5-18-2-6v-6z" fill="#6AC8B8"/>
<path transform="translate(1232,112)" d="m0 0 4 1-4 4-8 5-11 6-9 5-4-2 4-3 25-14zm-30 19m-4 0h2l-1 2z" fill="#6BC8B9"/>
<path transform="translate(1076,198)" d="m0 0 2 1-16 9-2 2-6 4-6 2-18 10v2l-9 3-11 6-2-1 6-4h3v-2l10-5 21-12 11-6z" fill="#0B4163"/>
<path transform="translate(1292,1764)" d="m0 0 4 1-4 3-5 4-5 10v3l5-1 4-2-3 6-2 1h-6l-3-2 1-9 6-9z" fill="#1A3354"/>
<path transform="translate(530,1765)" d="m0 0 6 1 2 2-1 8-2 4-1 6 7-1-4 4h-7l-4-2 2-6 6-9-1-4-3-1z" fill="#1D3959"/>
<path transform="translate(1524,1765)" d="m0 0h4v2l-8 5-5 9-1 5 5 1v2l-7 1-4-2 1-6 4-8 8-8z" fill="#1E3857"/>
<path transform="translate(1147,160)" d="m0 0 3 1-8 6-6 3-14 8-12 7-6 1 1-3 11-6 6-3 9-5z" fill="#6BC8B9"/>
<path transform="translate(1568,1765)" d="m0 0 1 4-6 12v5h7l-2 3h-7l-4-2-5 2v-2l5-5 2-7h2l2-5z" fill="#142C4F"/>
<path transform="translate(1474,1770)" d="m0 0 5 1 3 1-2 5-7 11h-5l-1-4 3-4 3-9z" fill="#142A4E"/>
<path transform="translate(567,1765)" d="m0 0 2 2-7 14v4l4 2 1 2-9-1-3-2 3-9 5-10z" fill="#1E3655"/>
<path transform="translate(1373,1469)" d="m0 0 4 2 6 12v2l2-1 3-9 3-1-1 7-5 11-3-1-7-14-3-5z" fill="#1A3759"/>
<path transform="translate(1611,1770)" d="m0 0h6l2 2v7l-2 7 5-2 3-5 2-2-1 7-4 4-6 1-3-2v-12l-4-3z" fill="#173052"/>
<path transform="translate(1108,1764)" d="m0 0 1 4-6 11v6l6 1-2 3h-7l-3-3 1-9 8-12z" fill="#1D3452"/>
<path transform="translate(1020,1771)" d="m0 0 5 1 3 4-6 10-1 1h-9l6-9z" fill="#193254"/>
<path transform="translate(953,1771)" d="m0 0h6l2 2v5l-8 10h-4l1-7z" fill="#1D3150"/>
<path transform="translate(1070,1772)" d="m0 0 1 2-2 5 1 7 4 3 5 1 3 3h-10l-7-4-2-4v-8l4-4z" fill="#173153"/>
<path transform="translate(1528,1766)" d="m0 0 4 2 1 5-5 11v2l4 1 3-2-2 4h-8l-4-3 1-4 5-7 1-6-2-2z" fill="#193355"/>
<path transform="translate(1599,1771)" d="m0 0 10 2-7 11-3 4h-5l-1-3 4-6z" fill="#1E3A5A"/>
<path transform="translate(1173,143)" d="m0 0m-2 1h2l-1 3-24 13-16 9-2 2-7 3-2 2-9 3 3-3 18-10 10-6 23-13z" fill="#0A3C62"/>
<path transform="translate(1201,1770)" d="m0 0 5 1 1 2-1 14h2v2h-6l-2-2v-10l-1-6z" fill="#192F4F"/>
<path transform="translate(515,392)" d="m0 0 10 2 17 6 4 1 3 1v2l-13-1-22-8z" fill="#6EC9BC"/>
<path transform="translate(1377,1771)" d="m0 0 7 1 1 4-7 11-5 1z" fill="#172D4F"/>
<path transform="translate(887,1770)" d="m0 0 2 1-1 5-2 5v5l3 2-1 1h-7l-5-5z" fill="#1B3150"/>
<path transform="translate(764,1135)" d="m0 0 8 6 2 4-6 3-6 2-1-9z" fill="#08B5CC"/>
<path transform="translate(762,1771)" d="m0 0h6l1 1v6l-7 9-4 1 2-10z" fill="#152D50"/>
<path transform="translate(1390,1770)" d="m0 0h7l1 2-1 14 1 2-5 1-2-4v-11l-3-1v-2z" fill="#1F3958"/>
<path transform="translate(622,1771)" d="m0 0h2v7l-1 7h5l-4 4h-6l-4-3 2-5z" fill="#193254"/>
<path transform="translate(802,1770)" d="m0 0h7l2 2v7l-1 7 5-1 1 2-5 2-5-1-1-1v-12l-3-2z" fill="#1F3857"/>
<path transform="translate(1500,1770)" d="m0 0 4 1 1 5-1 9 2 3-1 1h-5l-2-2v-16z" fill="#193355"/>
<path transform="translate(774,1770)" d="m0 0h7l1 1v12l-1 5-5-1v-11l-3-5z" fill="#172C4E"/>
<path transform="translate(944,1766)" d="m0 0 6 2-1 5-5 11-5 5h-9v-1l7-1 4-12 5-2v-5h-2z" fill="#1B3454"/>
<path transform="translate(1085,1743)" d="m0 0h7l3 3v7l-4 9-4 1 1-7 1-9-2-1v-2z" fill="#173253"/>
<path transform="translate(1288,1462)" d="m0 0 2 1 1 14 12-1 1 4-1 1h-14l-1-1-1-17z" fill="#173659"/>
<path transform="translate(977,720)" d="m0 0 7 4 9 6 18 14 11 8 1 2-8-2 1-2-17-12-15-11-7-5z" fill="#0B3E63"/>
<path transform="translate(435,864)" d="m0 0v3l-5 9-8 14-12 18-2 4-1-4 1-2 7-10 18-30z" fill="#0A3C62"/>
<path transform="translate(721,686)" d="m0 0 24 5 15 4v2h-6l-1-1-8-1-11-3-1-1-8-1-4-1z" fill="#73CAC1"/>
<path transform="translate(1232,1773)" d="m0 0 1 3-2 10h4v2l-2 1h-6l-5-2 2-6 4-5z" fill="#172F51"/>
<path transform="translate(844,1771)" d="m0 0 3 1-1 14 3 1-1 2h-6l-2-9 2-7z" fill="#1E3655"/>
<path transform="translate(503,1743)" d="m0 0h10l3 4-1 7-6 8h-4l2-5 4-5v-5l-6-1v-2z" fill="#1E3A59"/>
<path transform="translate(1061,549)" d="m0 0 6 2 25 12 6 3v2l-5-1-13-7-6-2-14-7z" fill="#6AC8B8"/>
<path transform="translate(1537,261)" d="m0 0 4 1v2l-11 3-17 4-4-1v-2l8-1 4-2 12-3z" fill="#74CAC2"/>
<path transform="translate(829,1770)" d="m0 0 4 5 2 1v-5l1 2 2 1-5 10-7 5h-8v-1l7-1 3-5z" fill="#204060"/>
<path transform="translate(1326,643)" d="m0 0 4 2 12 14 11 13 8 10 3 4-1 2-12-14-11-14-10-11z" fill="#80CDCC"/>
<path transform="translate(1240,538)" d="m0 0 7 6 5 7 5 5 14 17 6 7-1 2-10-11-8-10-9-10-7-9z" fill="#0B3A63"/>
<path transform="translate(1374,251)" d="m0 0h2l3 11 2 12 6 23 4 2-2 1-4-2-5-18-6-26z" fill="#0A3C62"/>
<path transform="translate(1101,568)" d="m0 0 9 3 20 10-1 3-29-14z" fill="#6AC8B8"/>
<path transform="translate(1132,583)" d="m0 0 7 2v2l3-1 3 2v2l7 1 9 5v2l-5-1-25-12z" fill="#65C7B4"/>
<path transform="translate(1056,578)" d="m0 0 3 1 7 8 8 8 7 8-1 2-15-14-7-8-3-4z" fill="#68C7B7"/>
<path transform="translate(775,577)" d="m0 0 7 1 13 5-1 2-10-2 6 5-1 2-10-7-4-4z" fill="#7BCAC7"/>
<path transform="translate(1463,280)" d="m0 0 4 1v2l-25 6-6 1-1-3 9-1 3-2 7-2 9-1z" fill="#74CAC1"/>
<path transform="translate(1246,1773)" d="m0 0 2 1-3 7v5l1 3-5-1-4-3 2-4z" fill="#0F274D"/>
<path transform="translate(1011,1764)" d="m0 0 4 2 2 4-3 6-5 4-4 1 2-4 4-5 1-4h-3l-1-3z" fill="#213A58"/>
<path transform="translate(399,852)" d="m0 0h1l1 53 1 6h3l-2 4-3-2-1-6z" fill="#00B15B"/>
<path transform="translate(1483,656)" d="m0 0h5l5 3 12 7 1 3-5-1-18-10z" fill="#67C7B6"/>
<path transform="translate(1390,603)" d="m0 0 5 2 14 8v3l-4-1-15-8z" fill="#6EC9BC"/>
<path transform="translate(644,1764)" d="m0 0h4v2l-8 6-4 7h-4l-1-2 6-8z" fill="#294862"/>
<path transform="translate(1033,554)" d="m0 0 4 2 13 13 6 7-1 2-8-7-11-12z" fill="#6AC8B8"/>
<path transform="translate(1426,1748)" d="m0 0 2 1-1 5-7 9-6 7-1-4 2-5 4-2 5-6z" fill="#234969"/>
<path transform="translate(707,1764)" d="m0 0 4 2 1 7-5 5-3 2-7 1 1-3 4-1 5-4 1-4z" fill="#213F5E"/>
<path transform="translate(1109,179)" d="m0 0 3 1-10 6-21 12-3-1 10-6 13-8z" fill="#0B3A63"/>
<path transform="translate(1116,1776)" d="m0 0 2 2-2 5 1 5 1 2-6-1-3-3 2-5 3-4z" fill="#213D5C"/>
<path transform="translate(1370,594)" d="m0 0 6 1 1 3 3-1 9 5 1 3 2 1-5-1-17-9z" fill="#67C7B6"/>
<path transform="translate(1107,184)" d="m0 0 1 2-8 5-13 6-2-1 3-3 14-8z" fill="#70C9BD"/>
<path transform="translate(472,1744)" d="m0 0h5l2 3 2-3 4 2v5l-10-1-3-3z" fill="#1E3857"/>
<path transform="translate(1591,1772)" d="m0 0h2l-1 8-2 4-5 4-3-1 5-9z" fill="#1E3858"/>
<path transform="translate(1382,290)" d="m0 0 2 1 2 7 4 1 4-2 4 1-3 2-3 1h-10l-2-10z" fill="#79CBC6"/>
<path transform="translate(1231,531)" d="m0 0 4 2 11 12 1 4-6-3-10-13z" fill="#6CC8BA"/>
<path transform="translate(564,397)" d="m0 0h3l1 2-7 9-10-1-1-3 8 1 3-3z" fill="#6BC8B9"/>
<path transform="translate(1322,1764)" d="m0 0 4 1 1 1v7l-5 5-3 2-4-1 7-6 2-6-2-1z" fill="#1B385A"/>
<path transform="translate(1305,1462)" d="m0 0 4 1-1 13-4 1v-14z" fill="#2B4762"/>
<path transform="translate(1465,644)" d="m0 0 10 5 6 4 1 3-6-2-13-7v-2z" fill="#68C7B7"/>
<path transform="translate(1228,515)" d="m0 0 16 8 3 2v2l3 1-2 1-20-11z" fill="#69C8B8"/>
<path transform="translate(1506,667)" d="m0 0 7 3 10 6-1 2-6-2-11-6z" fill="#6BC8BA"/>
<path transform="translate(1216,510)" d="m0 0 6 1 3 3-3 1-2-1 7 9v3l-5-5-6-7z" fill="#77CBC4"/>
<path transform="translate(833,599)" d="m0 0 7 1 15 6 1 3-7-2-3-1-8-4-5-1z" fill="#64C7B3"/>
<path transform="translate(1162,598)" d="m0 0 8 1 9 5 1 3-5-1-13-6z" fill="#67C7B6"/>
<path transform="translate(1411,1773)" d="m0 0 4 5 5 6h-4v2h-4l-1-6-1-2z" fill="#1E4869"/>
<path transform="translate(859,1766)" d="m0 0 4 1-2 11-4-2v-7z" fill="#223551"/>
<path transform="translate(561,1752)" d="m0 0 1 2 2 1-6 12-4 3-4-1 4-1 6-12z" fill="#314C62"/>
<path transform="translate(1200,734)" d="m0 0 6 3 2 3v3l-6-1-4-2v-2l-2-1h4z" fill="#41BF94"/>
<path transform="translate(843,626)" d="m0 0 11 7 3 4h-4l-8-6-3-4z" fill="#70C9BD"/>
<path transform="translate(1076,198)" d="m0 0 2 1-16 9-2 2-6 4-2-2 9-6z" fill="#0C4664"/>
<path transform="translate(743,691)" d="m0 0 17 4v2h-6l-1-1-8-1-4-1v-2z" fill="#6FC9BD"/>
<path transform="translate(398,896)" d="m0 0h1l2 17h3v3l-5 2-1-2z" fill="#80CDCC"/>
<path transform="translate(1638,473)" d="m0 0h2l-1 7-4 7h-2l1-7z" fill="#69C8B7"/>
<path transform="translate(780,700)" d="m0 0 12 2 1 3-11-1-4-1v-2z" fill="#6BC8BA"/>
<path transform="translate(888,660)" d="m0 0 4 1 10 7-1 2-7-3-6-5z" fill="#68C7B7"/>
<path transform="translate(1352,1472)" d="m0 0h1l1 8 2 2 5 1-1 2h-7l-2-2v-10z" fill="#1B3353"/>
<path transform="translate(1238,1476)" d="m0 0 5 1 1 4-5 3-3-1 1-5z" fill="#183457"/>
<path transform="translate(1786,509)" d="m0 0h28l5 2-1 4-2-3-4-1-26-1z" fill="#00B15B"/>
<path transform="translate(906,625)" d="m0 0 12 4 1 3-7-1-7-3z" fill="#63C6B3"/>
<path transform="translate(1183,606)" d="m0 0 9 4 3 2v2l-5-1-9-4v-2z" fill="#67C7B5"/>
<path transform="translate(1295,551)" d="m0 0 6 2 5 4v3l-5-2-6-3z" fill="#70C9BE"/>
<path transform="translate(1168,1770)" d="m0 0h1v5l-5 5h-5l6-7z" fill="#1C3555"/>
<path transform="translate(922,631)" d="m0 0 9 3 3 4-6-1-8-3v-2z" fill="#66C7B5"/>
<path transform="translate(1195,612)" d="m0 0 9 3 2 4-6-1-6-3z" fill="#6CC8BA"/>
<path transform="translate(1070,1755)" d="m0 0 4 2 1 5h-2l1 4-4-2-1-7z" fill="#254C6B"/>
<path transform="translate(764,696)" d="m0 0 11 2 1 3-10-1-4-1v-2z" fill="#6BC8BA"/>
<path transform="translate(1226,1765)" d="m0 0 6 1 3 3-1 5-4 1 1-6-5-1z" fill="#304C63"/>
<path transform="translate(1330,570)" d="m0 0 9 5 1 3-5-1-7-4v-2z" fill="#64C6B3"/>
<path transform="translate(748,1237)" d="m0 0h1v11l-2 2-2-1v-7z" fill="#0FB7CC"/>
<path transform="translate(1084,560)" d="m0 0 6 2 8 4v2l-5-1-10-5z" fill="#67C7B6"/>
<path transform="translate(1286,546)" d="m0 0 5 2 4 3v2l2 1-6-1-5-3z" fill="#60C6AF"/>
<path transform="translate(1355,1466)" d="m0 0h5l-4 1v3h-2l-1 3h-1l-1 8h-1v-9l2-5z" fill="#34647D"/>
<path transform="translate(1288,1462)" d="m0 0 2 1 1 12h-3l-1-4v-8z" fill="#1B304F"/>
<path transform="translate(816,607)" d="m0 0 11 7 3 2v2l-4-1-10-7z" fill="#71C9BF"/>
<path transform="translate(1065,589)" d="m0 0 7 5 9 9-1 2-15-14z" fill="#62C6B2"/>
<path transform="translate(1277,541)" d="m0 0 8 4 1 4-5-2-6-3 1-2z" fill="#6DC9BB"/>
<path transform="translate(1147,160)" d="m0 0 3 1-8 6-6 1v-2z" fill="#5BC5AB"/>
<path transform="translate(1596,1751)" d="m0 0 3 1-3 5-6 5 2-6z" fill="#1B395A"/>
<path transform="translate(950,1752)" d="m0 0h3l-1 4-6 5-2-1 4-7z" fill="#183154"/>
<path transform="translate(1636,1744)" d="m0 0h4l1 6h-7l1-5z" fill="#182F52"/>
<path transform="translate(1371,1476)" d="m0 0h2l-1 9-4 2 1-6z" fill="#214766"/>
<path transform="translate(973,651)" d="m0 0 9 3 2 3-7-1-5-2z" fill="#6DC8BB"/>
<path transform="translate(1033,554)" d="m0 0 4 2 9 9-2 2-5-5z" fill="#70C9BE"/>
<path transform="translate(1447,284)" d="m0 0 4 1-2 2-10 3-4-1v-2l9-1z" fill="#78CBC5"/>
<path transform="translate(1200,131)" d="m0 0 2 1v2l-9 5-2-1v-3z" fill="#78CBC5"/>
<path transform="translate(1047,1778)" d="m0 0h2l-1 5-5 5-4 1v-2l6-5z" fill="#2C536E"/>
<path transform="translate(530,1765)" d="m0 0 6 1 2 2-1 8-1-3-2-1-1-4-3-1z" fill="#2F5871"/>
<path transform="translate(907,1765)" d="m0 0 4 2 1 2v7h-2l-3-7-1-2z" fill="#223F5D"/>
<path transform="translate(1571,1755)" d="m0 0h4l-1 5-5 2-1-4z" fill="#1B3859"/>
<path transform="translate(1021,754)" d="m0 0 4 2 4 3v3h-7l-3-2 5-1z" fill="#80CDCC"/>
<path transform="translate(1319,564)" d="m0 0 8 4 1 4-11-5 2-1z" fill="#6CC8BA"/>
<path transform="translate(1110,1755)" d="m0 0 4 1-2 5-4 1-1-3z" fill="#2B3F58"/>
<path transform="translate(570,1755)" d="m0 0h4l-1 5-4 2-1-5z" fill="#142A4C"/>
<path transform="translate(879,652)" d="m0 0 9 6v3l-4-2-6-4z" fill="#74CAC1"/>
<path transform="translate(1412,1786)" d="m0 0 3 1-4 10h-3l2-9z" fill="#143458"/>
<path transform="translate(1164,1764)" d="m0 0 5 1 2 2-1 6-3-2-1-3-2-1z" fill="#234867"/>
<path transform="translate(1011,1764)" d="m0 0 4 2 2 4-2 2h-3v-4h-3l-1-3z" fill="#3B404D"/>
<path transform="translate(814,591)" d="m0 0 6 1 5 2v3l-10-3-2-2z" fill="#63C6B2"/>
<path transform="translate(927,1755)" d="m0 0 4 1-1 4-5 1-1-3z" fill="#1D3A5B"/>
<path transform="translate(1427,289)" d="m0 0 5 1-4 2-7 2h-5v-2l5-1 2 1v-2z" fill="#80CDCC"/>
<path transform="translate(1644,1743)" d="m0 0 4 2-2 5h-4z" fill="#21405F"/>
<path transform="translate(1641,902)" d="m0 0h1v10h-3l-4-4 1-2 4 3z" fill="#80CDCC"/>
<path transform="translate(1758,205)" d="m0 0h6l-1 7-3 3 2-8h-6z" fill="#80CDCC"/>
<path transform="translate(944,1766)" d="m0 0 6 2-1 5-3 4v-9h-2z" fill="#2E5874"/>
<path transform="translate(1389,1474)" d="m0 0h2l-1 7-2 3v-2h-2l2-7z" fill="#2A4964"/>
<path transform="translate(1086,955)" d="m0 0 3 1v11l-2 2-1-3z" fill="#41768A"/>
<path transform="translate(1345,683)" d="m0 0 8 4-1 2-5-1-4-2 1-2z" fill="#72CABF"/>
<path transform="translate(833,599)" d="m0 0 7 1 5 2v2l-6-1-6-2z" fill="#69C8B7"/>
<path transform="translate(1370,594)" d="m0 0 6 1 1 3 3-1v3l-5-1-5-3z" fill="#5BC5AB"/>
<path transform="translate(1238,541)" d="m0 0 5 1 4 5-1 2-5-3z" fill="#76CBC3"/>
<path transform="translate(981,1777)" d="m0 0 2 1-2 6-6 4v-3l4-4z" fill="#274A68"/>
<path transform="translate(1465,644)" d="m0 0 6 3v3l-4-1-4-2v-2z" fill="#63C6B2"/>
<path transform="translate(715,1778)" d="m0 0 1 2-4 6-4 1 2-4z" fill="#2C5672"/>
<path transform="translate(1432,626)" d="m0 0 9 5-1 2-6-2-2-2z" fill="#6CC8BA"/>
<path transform="translate(1403,610)" d="m0 0 6 3v3l-4-1-4-2 1-2z" fill="#71C9BE"/>
<path transform="translate(1240,521)" d="m0 0 7 4v2l3 1-2 1-9-5z" fill="#5DC5AD"/>
<path transform="translate(1633,484)" d="m0 0m-1 1 2 2-1 5-2 3-2-1z" fill="#76CAC3"/>
<path transform="translate(1502,270)" d="m0 0 4 1v2l-7 1-2-1v-2z" fill="#6CC8BA"/>
<path transform="translate(1452,1770)" d="m0 0 1 4-5 8-2 1 2-5z" fill="#204768"/>
<path transform="translate(1263,1778)" d="m0 0h2l-2 4-2-1z" fill="#32647E"/>
<path transform="translate(1482,1771)" d="m0 0 2 1z" fill="#458397"/>
<path transform="translate(1236,1785)" d="m0 0" fill="#80CDCC"/>
<path transform="translate(1585,1777)" d="m0 0" fill="#80CDCC"/>
<path transform="translate(799,1774)" d="m0 0" fill="#FA8E2D"/>
</svg>
